<?xml version="1.0" encoding="utf-8"?>
<!-- Generator: Adobe Illustrator 24.0.1, SVG Export Plug-In . SVG Version: 6.00 Build 0)  -->
<svg version="1.1" id="Layer_1" xmlns="http://www.w3.org/2000/svg" xmlns:xlink="http://www.w3.org/1999/xlink" x="0px" y="0px"
	 viewBox="0 0 2000 660.1" style="enable-background:new 0 0 2000 660.1;" xml:space="preserve">
<style type="text/css">
	.st0{fill:#FF6600;}
</style>
<g>
	<path class="st0" d="M1483.31,234.17c72.01,0,130.51,58.51,130.51,130.71c0,50.09-28.37,93.73-69.86,115.45
		c33.26-22.89,55.18-61.05,55.18-104.49c0-70.05-56.75-126.99-126.8-126.99c-43.44,0-81.79,21.92-104.69,55.18
		C1389.59,262.54,1433.03,234.17,1483.31,234.17z"/>
	<path class="st0" d="M216.13,415.95h82.18c3.52,0,5.87-2.15,6.85-6.46h2.94v33.26h-2.94c-0.59-1.76-1.37-3.13-2.35-4.3
		c-1.17-0.98-2.74-1.57-4.5-1.57H182.48v-2.94c1.96-0.59,3.33-1.37,4.3-2.35c1.17-0.98,1.57-2.54,1.57-4.5V319.09
		c0-1.76-0.2-3.13-0.98-4.11c-0.59-0.98-2.15-1.96-4.89-2.74v-2.94h113.69c1.96,0,3.33-0.59,4.3-1.37c1.17-0.98,1.96-2.54,2.35-4.5
		h3.13v32.87h-3.13c-0.39-1.96-1.17-3.52-2.35-4.5c-0.98-0.98-2.35-1.57-4.3-1.57h-80.03v30.33h51.85c1.76,0,2.94-0.39,4.11-0.98
		c0.98-0.59,1.76-2.35,2.54-4.89h3.13v32.09h-3.13c-0.39-1.96-1.17-3.33-2.15-4.5c-1.17-0.98-2.54-1.37-4.5-1.37h-51.85V415.95z"/>
	<path class="st0" d="M516.49,419.47l-2.15,1.96c-0.78-0.59-1.37-0.98-2.15-1.57c-0.59-0.59-1.37-0.98-2.35-0.98
		c-0.59,0-1.37,0.2-2.15,0.59c-0.59,0.2-3.91,1.96-9.39,5.28c-5.48,3.13-12.91,6.46-21.92,9.59c-9.2,3.13-18.59,4.7-28.57,4.7
		c-21.33,0-39.13-5.87-53.81-17.41c-14.48-11.54-21.72-27.79-21.72-48.53c0-20.94,7.24-37.18,21.72-48.72
		c14.48-11.35,32.48-17.22,53.81-17.22c8.81,0,17.22,1.17,25.24,3.33c8.22,2.15,14.87,4.7,19.76,7.44s8.41,4.7,10.57,5.87
		c2.35,0.98,4.11,1.76,5.48,2.35c1.17,0,2.35-0.2,3.13-0.59c0.98-0.2,1.76-0.59,2.35-0.78l2.15,1.76l-17.61,27.79l-2.35-1.96
		c0-2.35-0.2-4.11-0.59-5.09c-0.39-1.17-2.35-3.13-5.67-6.07c-3.33-2.94-8.81-5.67-16.24-8.22c-7.44-2.74-15.07-3.91-23.09-3.91
		c-14.09,0-26.02,3.72-35.61,11.54c-9.78,7.83-14.48,18.59-14.48,32.48c0,13.7,4.7,24.46,14.48,32.48
		c9.78,7.63,21.52,11.74,35.61,11.74c9.98,0,20.15-2.35,30.33-6.85s15.26-8.81,15.26-13.31v-2.54l2.35-1.57L516.49,419.47z"/>
	<path class="st0" d="M693.18,415.95c3.52,0,5.67-2.15,6.65-6.46h3.13v33.26h-3.13c-0.39-1.96-1.17-3.33-2.35-4.3
		c-0.98-0.98-2.35-1.57-4.3-1.57H580.87v-2.94c1.96-0.59,3.33-1.37,4.3-2.35c1.17-0.98,1.57-2.54,1.57-4.5V319.09
		c0-1.76-0.39-3.13-0.98-4.11c-0.59-0.98-2.35-1.96-4.89-2.74v-2.94h39.72v2.94c-4.11,1.17-6.07,3.33-6.07,6.85v96.86H693.18z"/>
	<path class="st0" d="M807.07,436.89h-39.92v-2.94c1.96-0.59,3.33-1.37,4.5-2.35c0.98-0.98,1.57-2.54,1.57-4.5V319.09
		c0-1.96-0.59-3.52-1.57-4.5s-2.35-1.76-4.5-2.35v-2.94h39.92v2.94c-4.11,1.17-6.26,3.33-6.26,6.85V427.1
		c0,3.52,2.15,5.67,6.26,6.85V436.89z"/>
	<path class="st0" d="M904.9,427.1c0,3.52,2.15,5.67,6.07,6.85v2.94h-39.72v-2.94c1.96-0.59,3.33-1.37,4.3-2.35
		c1.17-0.98,1.57-2.54,1.57-4.5V319.09c0-1.96-0.39-3.52-1.37-4.5c-0.98-0.98-2.54-1.76-4.5-2.35v-2.94h79.64
		c8.22,0,15.26,0.39,20.94,1.57c5.67,0.98,10.76,3.13,15.26,6.65s8.02,7.83,10.37,13.11c2.35,5.28,3.52,10.76,3.52,16.63
		s-1.17,11.35-3.33,16.63c-2.35,5.28-5.87,9.59-10.37,12.91c-4.7,3.33-9.98,5.48-15.85,6.65c-5.87,0.98-12.72,1.57-20.55,1.57H904.9
		V427.1z M947.56,364.29c7.24,0,13.31-1.37,18-3.72s6.85-6.85,6.85-13.31c0-6.65-1.96-10.96-5.87-13.31
		c-4.11-2.54-9.59-3.72-16.83-3.72h-2.15H904.9v34.05H947.56z"/>
	<path class="st0" d="M1172.78,349.42l-2.74-1.37c0-1.96-0.59-3.33-1.37-4.5s-4.3-3.72-10.76-8.02c-6.46-4.3-16.24-6.46-29.74-6.46
		c-8.41,0-15.85,0.78-22.11,2.54c-6.07,1.76-9.59,5.87-10.18,12.33c0,4.3,1.57,7.24,4.7,9c3.33,1.76,12.33,3.33,27.2,4.89
		c15.07,1.57,28.76,4.5,41.09,8.81c12.52,4.3,18.78,14.68,18.78,31.31c0,14.28-6.07,24.65-18,31.31
		c-11.94,6.46-25.63,9.78-41.29,9.78c-8.41,0-16.44-0.78-24.46-2.54c-7.83-1.76-14.09-3.72-18.78-6.07c-4.5-2.35-7.63-3.91-9-4.5
		c-1.37-0.78-2.54-1.17-3.72-1.17c-1.37,0-2.94,0.59-4.5,1.76l-2.54-1.37l13.7-31.31l2.94,1.17c0,7.24,5.28,12.72,16.05,16.44
		c10.76,3.91,20.55,5.87,29.55,5.87c8.41,0,16.05-1.37,22.89-3.91c6.85-2.54,10.37-7.24,10.37-13.89c0-6.85-9.98-11.35-29.94-13.7
		c-19.76-2.15-35.03-5.28-45.4-9c-10.37-3.52-15.46-13.31-15.46-29.16c0-14.28,5.67-24.65,16.83-30.92
		c11.15-6.46,24.65-9.59,40.11-9.59c7.04,0,14.28,0.98,21.52,2.74c7.24,1.76,13.11,3.72,17.61,5.67s7.63,3.33,9.2,4.11
		c1.76,0.78,3.33,1.17,5.09,1.37c0.59,0,1.37,0,2.15-0.39c0.78-0.39,1.57-0.98,2.54-1.76l2.54,1.37L1172.78,349.42z"/>
	<path class="st0" d="M1291.75,436.89h-39.72v-2.94c1.96-0.59,3.33-1.37,4.3-2.35c1.17-0.98,1.57-2.54,1.57-4.5V319.09
		c0-1.96-0.39-3.52-1.37-4.5s-2.54-1.76-4.5-2.35v-2.94h39.72v2.94c-4.11,1.17-6.07,3.33-6.07,6.85V427.1
		c0,3.52,1.96,5.67,6.07,6.85V436.89z"/>
	<path class="st0" d="M1705.4,427.1c0,1.96,0.39,3.52,1.37,4.5c0.98,0.98,2.54,1.76,4.5,2.35v2.94h-37.37v-2.94
		c1.76-0.59,3.33-1.37,4.3-2.35c0.98-0.98,1.57-2.54,1.57-4.5V319.09c0-1.96-0.59-3.52-1.37-4.5c-0.98-0.98-2.54-1.76-4.5-2.35
		v-2.94h43.44v2.94c-1.37,0.39-2.35,0.98-3.13,1.57c-0.59,0.59-0.98,1.37-0.98,2.74c0,0.98,0.2,1.76,0.78,2.54s1.17,1.76,1.76,2.35
		l70.44,73.38v-75.73c0-3.52-2.15-5.67-6.26-6.85v-2.94h37.57v2.94c-1.96,0.59-3.33,1.37-4.3,2.35c-1.17,0.98-1.57,2.54-1.57,4.5
		V427.1c0,1.96,0.39,3.52,1.37,4.5c0.98,0.98,2.54,1.76,4.5,2.35v2.94h-39.92v-2.94c1.57-0.39,2.54-0.78,2.94-1.37
		c0.39-0.39,0.78-1.17,0.78-2.15c0-1.17-0.2-2.15-0.98-3.13s-1.96-2.35-3.52-3.91l-71.42-73.96V427.1z"/>
	<path class="st0" d="M1557.28,453.52c-21.13,26.61-53.81,43.64-90.6,43.64c-63.99,0-115.84-51.85-115.84-115.84
		c0-34.24,15.07-65.16,38.74-86.29c-15.85,19.76-25.44,44.81-25.44,72.2c0,63.99,51.85,115.84,115.84,115.84
		C1509.73,483.06,1536.93,471.91,1557.28,453.52z"/>
	<polygon class="st0" points="1570.78,231.04 1576.65,256.67 1678.99,162.94 1585.26,265.08 1609.33,271.15 1585.26,277.22 
		1657.85,358.22 1576.65,285.63 1564.71,285.63 1556.3,277.22 1556.3,265.08 1518.73,219.1 1564.71,256.67 	"/>
</g>
</svg>
